<?xml version="1.0" standalone="no"?>
<!DOCTYPE svg PUBLIC "-//W3C//DTD SVG 20010904//EN"
 "http://www.w3.org/TR/2001/REC-SVG-20010904/DTD/svg10.dtd">
<svg version="1.0" xmlns="http://www.w3.org/2000/svg"
 width="850.000000pt" height="850.000000pt" viewBox="0 0 850.000000 850.000000"
 preserveAspectRatio="xMidYMid meet">

<g transform="translate(0.000000,850.000000) scale(0.100000,-0.100000)"
fill="#000000" stroke="none">
<path d="M5 8303 c0 -154 3 -197 14 -201 7 -2 27 -16 44 -31 18 -15 50 -40 73
-57 86 -62 166 -135 361 -331 112 -112 203 -210 203 -218 0 -8 4 -15 9 -15 16
0 169 -187 232 -283 119 -180 219 -437 310 -797 55 -218 74 -279 106 -333 l22
-37 -32 0 c-18 0 -38 -5 -45 -12 -17 -17 -15 -104 4 -140 15 -28 15 -32 0 -40
-27 -15 -22 -115 9 -160 30 -44 30 -48 7 -48 -45 0 -55 -56 -22 -127 10 -24
15 -43 10 -43 -11 0 -102 130 -175 250 -153 253 -178 336 -149 501 15 90 15
99 0 147 -10 28 -40 83 -68 124 -55 79 -320 346 -513 517 -66 58 -141 127
-167 153 -53 53 -133 169 -187 272 l-36 70 -6 -40 c-5 -28 -2 -49 12 -76 22
-43 25 -65 4 -28 -14 25 -16 -26 -17 -783 l0 -107 47 -92 c110 -215 252 -391
399 -493 212 -148 247 -186 275 -301 11 -43 22 -101 26 -129 4 -27 10 -59 15
-70 5 -11 14 -57 20 -103 19 -137 28 -152 100 -154 21 0 145 -17 258 -34 24
-4 32 -10 32 -26 0 -15 4 -18 16 -14 15 6 15 4 3 -11 -31 -42 -86 -96 -118
-115 -26 -17 -47 -21 -97 -19 -77 2 -92 -4 -68 -30 24 -27 9 -39 -59 -46 l-55
-6 -25 49 c-14 27 -45 76 -69 109 -24 33 -52 73 -62 89 -17 26 -20 28 -31 13
-10 -13 -17 -3 -48 66 -20 45 -39 94 -43 110 -8 34 -24 36 -24 3 0 -14 -7 -55
-16 -93 -10 -42 -17 -117 -17 -196 -1 -92 -5 -126 -13 -123 -8 3 -11 -7 -9
-30 2 -33 1 -34 -17 -17 -10 9 -16 23 -14 30 3 7 -1 13 -8 13 -8 0 -17 8 -20
17 -7 17 9 33 32 33 6 0 12 9 12 21 0 14 -5 19 -17 17 -11 -2 -17 -11 -15 -21
2 -9 -2 -17 -7 -17 -6 0 -10 10 -10 23 1 50 -22 90 -47 80 -11 -4 -14 1 -10
20 2 14 1 27 -4 29 -5 2 -11 15 -14 29 -5 31 -35 69 -53 69 -7 0 -13 7 -13 16
0 10 6 14 15 11 12 -5 12 -2 3 18 -6 14 -18 25 -26 25 -9 0 -13 7 -9 19 3 14
1 18 -9 14 -14 -5 -19 11 -15 57 1 16 -1 21 -7 12 -6 -8 -13 -2 -25 23 -9 20
-17 42 -17 50 0 8 -3 15 -7 15 -5 0 -17 18 -27 41 -12 23 -38 52 -63 69 l-43
29 0 -75 c0 -67 4 -82 40 -153 21 -44 45 -101 51 -127 7 -27 34 -89 61 -138
26 -49 48 -91 48 -94 0 -3 -7 -14 -17 -24 -30 -34 -44 -144 -50 -408 -6 -287
0 -332 73 -575 20 -68 34 -131 31 -140 -12 -30 -37 -28 -77 9 -32 29 -146 96
-164 96 -9 0 -4 -1086 6 -1125 5 -22 18 -93 29 -158 28 -177 62 -276 139 -406
16 -29 30 -56 30 -61 0 -5 -38 -21 -85 -36 -47 -15 -93 -33 -103 -40 -16 -12
-17 -75 -16 -1024 1 -556 3 -1013 6 -1015 4 -5 1425 -10 1816 -7 205 2 211 3
194 20 -10 10 -29 41 -42 68 -13 27 -27 51 -30 54 -17 12 -50 92 -50 118 0 16
-7 35 -15 42 -12 10 -15 9 -15 -6 0 -14 -3 -15 -12 -6 -8 8 -8 15 2 27 12 15
17 13 46 -17 18 -18 39 -39 48 -46 12 -10 14 -18 6 -32 -13 -23 -13 -50 -1
-50 5 0 13 9 16 21 4 11 12 18 18 16 17 -5 126 -169 127 -189 0 -17 16 -18
193 -19 105 -1 208 -1 227 -2 19 0 145 0 280 1 l246 2 -4 35 c-3 29 -11 38
-39 52 -34 16 -73 77 -58 91 6 6 20 -11 28 -33 3 -5 7 -7 10 -4 4 3 -5 22 -19
42 -13 20 -22 37 -18 37 3 0 1 7 -6 15 -7 8 -9 15 -4 15 4 0 -3 11 -15 24 -12
13 -23 33 -24 45 -1 11 -7 21 -13 21 -7 0 -10 -8 -7 -19 3 -11 0 -28 -6 -38
-8 -14 -10 -7 -9 35 1 53 -9 71 -39 72 -19 0 -16 -17 5 -29 12 -7 14 -13 6
-21 -8 -8 -17 -2 -33 25 -26 44 -22 81 8 78 17 -2 21 3 21 26 0 16 -6 34 -14
40 -8 7 -13 26 -11 44 3 42 -3 51 -22 32 -14 -14 -17 -13 -39 10 -12 14 -27
25 -33 25 -18 0 -106 101 -106 123 -1 44 14 59 51 53 28 -6 33 -4 28 9 -4 10
0 15 10 15 9 0 16 -4 16 -10 0 -5 5 -10 11 -10 6 0 9 6 6 14 -4 9 0 13 11 11
9 -1 16 -9 14 -16 -2 -9 4 -7 17 5 19 17 47 14 36 -5 -8 -12 -2 -11 29 5 30
15 93 7 106 -14 5 -8 10 -8 14 -2 4 6 19 5 43 -4 21 -7 46 -13 56 -14 9 0 17
-5 17 -11 0 -6 6 -9 14 -6 16 6 43 -19 32 -30 -4 -4 -15 -2 -26 5 -13 8 -21 8
-25 1 -9 -14 4 -61 15 -54 26 16 306 -193 408 -304 44 -48 115 -156 140 -211
31 -69 49 -113 57 -140 4 -14 13 -28 19 -33 6 -4 75 -7 154 -6 118 2 142 4
142 17 0 8 -20 73 -44 146 -24 72 -52 158 -61 191 -41 149 -108 351 -119 357
-6 4 -8 8 -4 8 12 0 -47 122 -105 215 -125 203 -308 372 -552 510 -94 54 -320
207 -373 254 -30 25 -75 64 -102 86 -54 45 -120 121 -120 138 0 7 14 21 31 32
39 26 155 159 180 207 l19 38 68 -33 c37 -17 69 -34 72 -37 3 -3 21 -13 40
-23 19 -9 55 -31 80 -47 25 -16 70 -44 100 -62 30 -17 60 -36 65 -40 6 -5 31
-22 58 -38 26 -17 68 -44 94 -60 26 -17 134 -73 240 -125 145 -71 196 -101
202 -118 21 -54 97 -99 291 -171 69 -26 178 -74 242 -107 65 -32 124 -59 130
-59 7 0 58 -20 113 -45 136 -60 305 -123 457 -170 71 -22 128 -42 128 -45 0
-4 -37 -37 -81 -76 -145 -123 -157 -134 -162 -154 -3 -13 2 -25 14 -34 16 -11
29 -11 82 2 67 17 309 23 324 9 27 -28 -222 -192 -375 -247 -46 -17 -66 -30
-73 -47 -13 -35 -12 -39 16 -51 20 -9 39 -8 88 3 34 9 114 18 177 21 102 6
127 4 220 -19 107 -26 241 -71 295 -99 l30 -16 -40 -11 c-73 -19 -271 -50
-339 -53 -69 -2 -78 -7 -84 -45 -2 -18 10 -29 65 -59 38 -20 107 -59 155 -86
84 -47 90 -49 155 -46 l68 3 -143 79 c-79 43 -142 80 -140 81 2 2 71 19 153
39 213 50 237 58 246 83 12 32 -51 76 -178 123 -147 55 -259 81 -378 89 l-99
6 104 89 c112 95 164 155 154 179 -3 8 -32 25 -65 38 -55 20 -72 21 -187 16
l-127 -5 100 94 c89 84 103 94 130 90 17 -3 102 -11 190 -17 l160 -12 175 32
175 33 148 86 c146 86 149 88 289 239 139 151 141 152 167 139 26 -14 32 -10
176 94 l150 108 96 138 c89 130 98 147 131 259 31 101 38 145 47 280 6 88 11
223 11 300 l0 140 200 199 c207 206 204 201 228 312 l9 42 -83 7 c-72 6 -84 9
-84 25 0 10 36 58 81 107 169 185 304 400 297 475 l-3 33 -140 10 -140 10 40
26 c22 14 84 52 138 84 53 31 97 59 97 61 0 2 -30 -11 -67 -29 -38 -19 -124
-58 -193 -87 -119 -51 -160 -74 -149 -84 6 -6 200 -25 302 -30 43 -2 80 -6 84
-10 13 -12 -18 -85 -68 -162 -95 -145 -225 -292 -317 -355 -23 -17 -42 -36
-42 -44 0 -7 -3 -20 -6 -29 -10 -27 79 -62 169 -65 9 -1 17 -5 17 -10 0 -22
-67 -87 -170 -168 -62 -48 -143 -118 -179 -155 l-67 -68 -41 38 c-23 20 -65
56 -92 80 -28 24 -67 71 -87 105 -71 123 -231 324 -336 422 -35 33 -116 106
-179 162 -149 131 -202 194 -219 258 -7 28 -19 59 -27 70 -12 20 -10 22 35 34
132 35 375 226 455 358 84 139 153 372 140 473 -6 45 -10 54 -69 145 -17 28
-46 85 -63 127 -54 129 -175 295 -260 356 -25 18 -40 22 -65 18 -77 -15 -264
-179 -343 -301 -25 -38 -67 -101 -93 -140 -57 -84 -99 -168 -104 -210 -3 -16
-9 -41 -15 -55 -9 -23 -10 -23 -10 -4 -1 32 -27 50 -47 33 -12 -10 -15 -24
-10 -58 3 -25 13 -123 21 -219 25 -277 82 -410 276 -640 71 -85 365 -381 487
-491 84 -76 215 -228 315 -367 44 -62 46 -70 10 -47 -75 50 -517 -22 -778
-126 -38 -16 -99 -34 -135 -40 -36 -7 -85 -23 -110 -36 -25 -12 -71 -36 -104
-53 l-58 -30 -29 29 c-16 16 -33 29 -38 29 -9 0 -40 24 -82 62 -10 10 -21 18
-24 18 -10 0 -120 82 -127 95 -5 7 -24 19 -43 25 -19 6 -35 16 -35 21 0 5 -5
9 -11 9 -19 0 -140 91 -198 148 -56 55 -93 112 -87 134 1 7 1 9 -2 5 -5 -11
-36 33 -37 53 -2 28 -27 80 -36 74 -5 -3 -9 4 -9 15 0 12 -9 30 -20 41 -11 11
-20 24 -20 30 0 5 -11 26 -25 46 -13 20 -27 52 -31 73 -4 20 -10 41 -14 46 -5
6 -23 55 -41 110 -18 55 -36 102 -40 105 -5 3 -16 24 -25 45 -9 22 -25 60 -36
85 -46 101 -58 132 -53 140 3 5 1 11 -5 15 -5 3 -10 16 -10 28 0 13 -7 33 -16
45 -18 26 -96 251 -125 361 -10 41 -32 98 -48 127 -18 33 -27 62 -24 77 3 16
-8 51 -28 94 -58 123 -230 272 -376 326 -82 31 -198 57 -251 57 -107 0 -307
-82 -448 -184 -60 -42 -317 -265 -416 -361 -30 -27 -37 -55 -15 -55 8 0 76 55
151 123 165 146 252 207 412 287 107 54 130 62 196 67 41 3 113 0 159 -6 81
-12 203 -45 224 -61 6 -5 30 -13 55 -20 78 -21 183 -94 230 -160 18 -26 11
-22 -57 24 -94 65 -230 121 -333 137 -230 36 -585 -74 -844 -259 -92 -67 -239
-223 -230 -247 9 -24 31 -18 73 20 l39 36 7 -33 c4 -18 11 -37 14 -43 4 -5 13
-30 20 -55 36 -125 164 -315 278 -411 122 -104 258 -164 418 -185 222 -30 391
-7 554 75 33 17 63 31 66 31 3 0 5 -10 5 -23 0 -31 17 -53 62 -80 42 -25 127
-120 163 -182 13 -22 40 -87 60 -145 21 -58 50 -134 66 -169 16 -35 28 -66 26
-67 -2 -2 -25 4 -52 12 -124 38 -208 46 -455 42 -8 0 -26 0 -40 0 -65 2 -108
-3 -103 -11 3 -5 -7 -6 -24 -3 -38 9 -114 -8 -129 -28 -6 -9 -18 -16 -26 -16
-8 0 -19 -5 -25 -11 -7 -7 -13 -7 -17 -1 -10 16 -66 -9 -66 -29 0 -10 -9 -19
-21 -21 -12 -2 -27 -12 -33 -22 -6 -11 -18 -28 -27 -39 -28 -31 -28 -63 -2
-91 12 -14 23 -33 24 -43 0 -10 3 -13 5 -7 5 12 94 -3 94 -16 0 -4 25 -6 54
-4 38 1 59 -2 67 -12 12 -14 90 -20 102 -7 7 6 93 15 149 14 14 0 32 6 38 14
14 17 135 21 160 5 9 -6 17 -5 21 2 4 7 13 7 27 -1 15 -8 29 -8 48 -1 20 8 31
7 43 -4 10 -9 30 -13 52 -10 26 3 38 0 43 -11 4 -10 19 -15 48 -15 30 0 55 -8
81 -25 20 -14 41 -24 46 -21 5 3 20 -3 33 -14 14 -10 37 -21 52 -24 52 -9 166
-90 166 -117 0 -5 7 -9 15 -9 8 0 15 -5 15 -10 0 -16 249 -262 259 -255 5 3
20 -6 32 -20 13 -13 30 -25 37 -25 8 0 39 -13 69 -30 30 -16 63 -30 73 -30 10
0 25 -6 32 -13 7 -8 25 -17 39 -20 14 -4 36 -16 49 -27 13 -11 32 -20 44 -20
13 -1 34 -18 56 -47 19 -26 53 -60 75 -76 37 -27 192 -105 375 -189 41 -19 94
-47 118 -61 40 -26 42 -30 42 -75 -1 -63 -28 -121 -76 -157 -56 -42 -153 -125
-190 -162 -37 -38 -201 -97 -326 -118 -18 -3 -40 -8 -49 -11 -54 -16 -255 -30
-424 -29 l-130 0 -95 49 c-144 74 -396 227 -491 297 -174 129 -247 215 -365
428 l-52 94 25 41 c14 23 35 57 48 76 12 19 26 47 29 62 6 24 1 31 -35 54 -77
48 -200 84 -289 84 -45 0 -80 -4 -80 -10 0 -5 -6 -7 -14 -4 -33 13 -102 -110
-111 -197 -8 -73 14 -115 80 -151 28 -15 58 -28 68 -28 9 0 17 -5 17 -11 0
-12 154 -7 195 5 17 6 25 -3 49 -49 44 -84 150 -222 238 -306 213 -208 669
-462 893 -500 100 -16 415 -13 444 5 3 2 26 7 51 11 24 4 52 11 61 16 10 5 33
11 52 13 19 3 52 12 73 21 22 9 53 18 69 20 33 5 343 121 360 135 7 6 35 -13
81 -56 l69 -65 -103 -100 c-110 -106 -186 -161 -317 -227 -160 -80 -327 -120
-458 -109 -228 19 -363 46 -607 123 -216 68 -571 219 -663 283 -23 15 -103 58
-177 94 -74 37 -173 87 -220 113 -47 25 -119 64 -160 87 -41 22 -127 66 -190
98 -63 32 -126 65 -140 73 -14 8 -83 49 -155 91 -71 41 -137 80 -145 85 -78
48 -271 148 -356 185 -137 58 -366 116 -514 129 -36 3 -78 8 -95 10 -28 4 -69
6 -335 22 -200 12 -324 42 -469 116 -197 101 -315 247 -409 508 -52 144 -144
442 -137 448 14 14 77 -65 91 -115 55 -188 190 -429 334 -596 36 -41 140 -116
200 -144 110 -51 266 -85 414 -89 113 -3 131 -1 142 14 16 22 9 32 -22 32 -14
0 -32 7 -41 15 -8 9 -23 13 -33 10 -11 -3 -20 1 -24 10 -3 9 -10 14 -15 10 -5
-3 -12 -1 -16 5 -3 5 -17 10 -31 10 -14 0 -23 4 -20 8 3 5 -5 8 -17 7 -12 -1
-30 4 -39 12 -10 9 -25 12 -40 8 -16 -4 -19 -3 -9 3 16 12 6 33 -13 26 -7 -3
-20 2 -29 10 -8 8 -26 18 -41 22 -14 3 -26 10 -26 14 0 7 -48 25 -61 22 -4 -1
-6 6 -5 16 0 9 -5 16 -12 15 -6 -2 -12 4 -12 12 0 8 -6 12 -14 9 -9 -3 -20 3
-28 15 -7 12 -18 21 -25 21 -7 0 -13 6 -13 13 0 9 -2 9 -9 -1 -6 -10 -14 -5
-30 22 -13 20 -27 34 -31 31 -5 -3 -17 3 -27 14 -10 10 -37 39 -60 64 -22 25
-43 43 -46 41 -3 -3 -8 8 -11 23 -7 31 -83 130 -97 126 -4 -2 -11 6 -14 17 -4
11 -12 20 -18 20 -9 0 -8 3 1 8 10 7 7 16 -11 43 -36 54 -61 113 -49 117 7 2
7 14 0 39 -5 19 -11 45 -14 56 -2 11 -8 25 -13 30 -6 6 -4 18 6 33 9 15 11 24
4 24 -6 0 -11 5 -11 11 0 5 5 7 10 4 6 -3 10 1 10 9 0 26 15 26 70 0 29 -13
55 -22 58 -19 15 14 -55 176 -104 242 -13 17 -24 34 -24 38 0 17 130 -8 183
-36 66 -35 117 -52 117 -39 0 5 -14 30 -31 56 -25 36 -29 48 -18 54 7 5 17 6
23 3 5 -3 6 -1 2 5 -4 6 14 17 45 27 28 9 66 32 84 51 19 19 38 34 43 34 5 0
13 10 19 22 7 17 4 31 -14 64 l-24 43 32 -4 c47 -6 155 -43 223 -76 65 -33 86
-36 86 -14 0 12 8 14 31 10 35 -6 104 -40 114 -55 12 -19 38 -11 32 9 -6 25
15 34 49 21 14 -6 30 -7 36 -4 6 4 34 6 63 5 47 -1 53 1 58 21 6 22 7 22 21 3
15 -20 15 -20 16 0 0 12 -4 25 -9 30 -5 6 -6 18 -2 28 8 21 15 13 153 -164
287 -368 462 -538 574 -556 37 -6 38 -5 24 12 -8 9 -56 51 -107 92 -140 113
-279 270 -532 603 -121 159 -140 190 -118 190 8 0 8 3 -2 9 -10 7 -11 13 -1
31 15 27 23 120 10 120 -4 0 -11 -6 -13 -12 -7 -18 -27 10 -27 37 0 14 3 16 9
7 6 -11 10 -11 18 0 7 9 6 21 -3 38 -8 14 -14 21 -15 15 0 -5 -14 17 -30 50
-16 33 -29 54 -29 47 0 -7 -4 -10 -10 -7 -5 3 -10 17 -10 30 0 13 -4 26 -9 29
-5 4 -8 14 -6 24 2 9 4 21 4 26 1 4 8 6 16 2 12 -4 15 3 15 29 0 19 -5 46 -12
60 -13 30 -5 43 17 25 12 -10 16 -9 21 3 5 13 8 13 25 -4 10 -10 19 -24 19
-31 0 -9 3 -9 12 0 10 10 15 7 25 -10 11 -21 12 -18 6 21 -6 41 -5 43 15 32
11 -6 23 -24 27 -40 9 -41 34 -60 74 -56 26 2 37 8 44 26 l8 24 16 -30 c9 -16
21 -35 28 -42 13 -12 55 -7 55 7 0 9 15 7 43 -5 13 -5 17 -14 13 -30 -3 -13 0
-27 7 -33 16 -13 50 -9 55 6 7 23 33 11 39 -18 6 -32 10 -35 31 -21 8 5 11 17
7 33 -5 19 -2 25 10 25 10 0 18 -12 22 -29 8 -39 23 -35 23 7 0 24 -5 35 -15
35 -9 0 -15 9 -15 24 0 14 -10 30 -24 39 -21 14 -23 21 -19 69 3 39 2 49 -6
38 -6 -8 -11 -28 -12 -45 -1 -21 -3 -24 -6 -10 -3 11 -11 27 -19 35 -15 18
-46 100 -37 100 3 0 0 7 -7 15 -6 8 -9 23 -5 34 5 16 3 20 -9 15 -9 -3 -22 1
-31 10 -14 14 -13 17 10 32 13 9 22 20 19 26 -3 5 -1 15 5 22 9 11 5 21 -15
45 -36 43 -26 65 25 56 28 -5 42 -2 54 9 9 9 20 16 26 16 5 0 18 10 28 23 17
21 82 57 104 57 6 0 25 6 42 13 18 8 59 22 92 31 33 10 68 22 77 27 10 5 29 9
42 9 14 0 27 4 30 9 6 10 85 20 201 26 94 5 436 -22 450 -36 5 -5 17 -9 27 -9
9 0 37 -6 60 -14 24 -8 77 -24 118 -37 41 -12 82 -26 90 -30 16 -9 77 -35 150
-63 25 -10 59 -24 75 -32 17 -8 51 -21 75 -28 90 -26 109 8 106 185 -2 91 -6
111 -24 137 -12 16 -22 33 -22 37 0 15 -51 55 -70 55 -10 0 -22 5 -25 10 -3 6
-14 10 -23 10 -9 0 -30 7 -45 15 -54 28 -240 85 -324 100 -47 8 -88 17 -92 19
-22 14 -282 25 -370 16 -99 -11 -225 -36 -251 -49 -9 -5 -31 -12 -50 -16 -19
-4 -41 -11 -50 -16 -8 -5 -44 -20 -80 -35 -36 -14 -109 -49 -163 -76 -73 -37
-112 -51 -148 -53 -42 -2 -49 0 -49 16 0 22 -18 25 -26 4 -10 -24 -44 -30
-174 -26 -11 1 -19 6 -17 13 1 7 -3 12 -10 13 -6 0 -14 3 -18 7 -9 8 -14 57
-6 56 21 -2 32 4 28 16 -3 7 12 28 36 47 22 19 46 40 51 47 35 43 129 112 186
138 14 7 34 20 45 31 11 10 28 22 38 26 9 3 17 10 17 15 0 5 17 17 38 27 21
11 43 29 49 41 9 20 6 26 -28 54 -46 36 -49 57 -11 66 45 9 82 26 82 36 0 12
-50 56 -72 63 -9 3 -15 12 -12 20 9 22 -15 56 -47 67 -24 8 -27 13 -18 24 14
17 41 18 56 3 8 -8 14 -6 22 10 10 18 15 19 31 9 15 -10 22 -10 32 0 8 8 45
12 105 12 80 0 96 3 113 20 15 15 19 28 14 48 -12 59 -9 74 19 95 25 19 42 22
195 23 92 1 183 5 202 7 19 3 52 6 73 6 20 1 37 4 37 9 -1 10 -79 66 -130 92
-39 20 -42 24 -25 30 25 9 86 -5 138 -32 69 -35 165 -99 171 -114 3 -8 12 -14
19 -14 8 0 30 -13 50 -28 27 -22 33 -32 25 -45 -9 -17 -3 -37 11 -37 13 0 31
49 20 55 -5 4 -7 11 -3 16 3 5 0 17 -8 26 -19 23 63 -20 104 -55 61 -51 121
-82 111 -56 -9 24 12 15 46 -20 18 -19 39 -32 45 -30 15 6 41 -40 33 -59 -5
-14 10 -37 25 -37 4 0 14 13 23 29 14 29 28 33 53 18 6 -5 12 -6 12 -2 0 3 18
-4 40 -15 21 -11 48 -21 59 -23 10 -2 25 -8 33 -15 8 -6 29 -12 46 -14 18 -1
32 -5 32 -8 0 -3 10 -6 23 -6 12 -1 42 -9 66 -18 32 -12 46 -14 51 -6 4 7 10
11 14 11 14 -1 56 -55 56 -72 0 -23 7 -24 27 -4 8 8 20 12 26 8 7 -3 4 3 -6
15 -11 11 -16 26 -12 31 3 6 2 11 -3 11 -6 0 -12 6 -15 13 -4 10 2 13 20 9 13
-3 27 -11 30 -18 3 -8 9 -11 14 -9 11 7 -23 43 -35 37 -5 -3 -6 0 -2 6 20 32
90 -57 144 -183 30 -70 72 -254 72 -316 0 -19 13 -72 29 -119 16 -47 32 -100
36 -119 9 -44 47 -129 78 -174 27 -40 34 -37 55 18 15 38 31 145 33 210 1 28
3 42 6 33 4 -16 7 -16 27 -3 13 9 28 27 35 42 7 14 28 50 47 79 19 29 53 101
75 161 23 59 52 137 65 172 36 94 54 190 54 289 l0 86 33 -32 c41 -40 183
-113 267 -137 87 -25 304 -26 405 -1 135 33 154 36 203 36 57 0 51 7 145 -170
24 -47 69 -122 99 -165 85 -125 136 -220 168 -312 39 -111 47 -177 27 -239
-51 -163 -68 -368 -42 -519 44 -258 143 -423 294 -492 72 -33 80 -35 207 -39
98 -3 119 -1 180 21 l69 24 -105 1 c-206 1 -346 53 -447 165 -50 55 -67 84
-106 183 -41 104 -47 131 -58 245 -14 152 -9 249 22 400 l23 113 -22 109 -22
108 58 71 c144 176 256 368 352 606 l58 145 10 167 c14 233 -13 484 -89 848
-29 140 -30 154 -30 395 1 236 2 255 25 320 13 39 26 77 30 86 6 14 -5 17 -82
22 -86 5 -1093 -2 -1101 -9 -1 -1 -4 -21 -5 -43 -1 -22 0 -38 2 -36 3 3 16
-10 28 -27 29 -38 25 -45 -13 -24 -41 24 -255 96 -265 90 -5 -3 -15 -1 -22 5
-9 7 -38 10 -79 7 -57 -5 -69 -2 -93 17 l-29 22 -1096 3 -1096 2 -48 -42 c-56
-49 -121 -147 -155 -233 -108 -272 -162 -340 -408 -510 -211 -146 -345 -249
-387 -297 l-32 -38 -84 34 c-91 37 -252 71 -389 81 -287 23 -417 54 -628 152
-120 55 -174 90 -434 275 -211 152 -450 307 -644 419 -60 34 -133 84 -162 111
-30 27 -63 48 -76 48 -22 0 -22 -1 -21 -197z m7056 87 c17 -10 18 -13 4 -34
-8 -12 -12 -25 -9 -29 4 -3 -21 -62 -54 -129 -71 -144 -89 -196 -148 -422 -42
-157 -66 -236 -94 -310 l-11 -30 -18 27 c-16 26 -17 30 0 99 9 40 28 134 42
208 29 154 63 266 117 392 41 96 126 238 141 238 6 0 19 -5 30 -10z m147 -96
c-16 -82 -13 -333 6 -489 8 -71 38 -251 66 -400 62 -330 73 -431 61 -579 -21
-247 -104 -459 -293 -742 -81 -122 -114 -163 -121 -153 -4 5 -48 221 -58 284
-4 28 -8 88 -8 135 -1 59 -4 80 -11 70 -5 -9 -8 -75 -6 -155 5 -171 0 -221
-20 -204 -8 6 -14 17 -14 23 0 7 -27 56 -60 109 -33 54 -60 100 -60 103 0 3
-9 19 -21 35 -11 16 -18 36 -15 44 3 8 -3 20 -13 27 -16 12 -91 120 -91 132 0
3 21 5 48 6 26 0 58 2 72 4 63 11 171 37 206 49 49 18 108 34 159 43 22 4 47
9 55 11 8 2 43 8 77 12 56 8 123 36 123 52 0 22 -66 67 -191 131 -144 73 -144
73 -102 76 62 5 215 -24 229 -43 11 -15 44 -11 44 5 0 5 2 15 6 23 7 19 -52
89 -157 183 -19 17 -43 41 -54 52 -11 12 -66 56 -122 97 -56 42 -114 91 -129
110 l-26 35 20 17 c24 21 71 151 137 384 49 169 86 271 131 362 34 66 134 221
139 215 3 -3 0 -31 -7 -64z m-383 -53 c-7 -22 -25 -29 -25 -11 0 12 23 40 28
35 2 -2 1 -13 -3 -24z m-84 2 c20 4 24 1 25 -22 0 -14 2 -46 4 -71 1 -27 -8
-80 -24 -135 -15 -49 -39 -155 -53 -235 -15 -80 -30 -149 -33 -153 -4 -4 -26
35 -49 88 -31 74 -39 101 -31 115 13 24 13 30 0 30 -5 0 -10 -8 -10 -17 0 -26
-13 -5 -44 67 -15 36 -32 74 -38 85 -10 17 -9 18 4 8 8 -7 19 -9 23 -5 5 4 5
2 1 -5 -3 -6 -2 -14 3 -17 5 -3 7 -15 4 -26 -10 -39 45 -10 60 32 6 18 -17 32
-36 21 -7 -3 -3 4 8 16 11 13 19 25 18 27 -8 11 -1 24 12 24 14 0 19 12 16 33
0 4 5 7 13 7 17 0 27 35 14 48 -7 7 -3 14 12 22 12 7 20 8 17 2 -4 -5 0 -18 8
-28 13 -18 14 -18 25 11 7 17 12 45 13 62 0 18 4 28 7 22 4 -5 18 -8 31 -6z
m62 -58 c-3 -9 -8 -14 -10 -11 -3 3 -2 9 2 15 9 16 15 13 8 -4z m-217 -78 c-5
-32 -23 -31 -23 2 0 20 4 28 13 24 8 -3 12 -14 10 -26z m-5586 -377 c47 -33
85 -65 84 -70 -1 -6 -2 -19 -2 -30 -3 -29 -15 -25 -94 26 -67 43 -70 47 -64
76 l6 30 -20 -23 c-15 -19 -19 -20 -20 -8 0 9 -10 19 -22 23 -17 4 -20 8 -10
14 16 10 5 42 -14 42 -8 0 -14 9 -14 20 0 20 3 19 43 -9 23 -17 80 -58 127
-91z m219 -135 c123 -68 221 -108 347 -139 97 -24 278 -51 399 -60 100 -8 145
-17 138 -30 -5 -7 -2 -7 8 1 10 8 27 9 54 3 22 -5 56 -11 75 -14 86 -13 281
-97 302 -129 3 -6 14 -12 23 -13 20 -3 122 -89 136 -116 8 -15 17 -19 39 -14
22 4 36 -1 62 -24 18 -16 36 -30 40 -30 11 0 54 -94 51 -110 -2 -9 -36 -33
-77 -55 l-73 -39 -45 27 c-25 14 -48 23 -52 20 -3 -3 -6 0 -6 8 0 8 -13 23
-30 32 -16 10 -30 22 -30 26 0 5 -9 11 -20 14 -13 3 -21 -1 -25 -14 -4 -10
-12 -19 -20 -19 -10 0 -12 -13 -8 -57 3 -32 10 -63 14 -69 5 -6 6 -26 3 -44
-5 -25 -3 -35 10 -42 26 -15 16 -55 -25 -99 -38 -41 -59 -49 -59 -24 0 8 -9
15 -20 15 -11 0 -20 -7 -20 -15 0 -8 6 -15 14 -15 21 0 29 -17 18 -36 -6 -11
-11 -13 -16 -5 -12 19 -24 12 -19 -11 4 -22 4 -22 -11 -4 -12 15 -16 16 -20 5
-14 -43 -14 -44 -15 -26 -1 9 -5 17 -11 17 -13 0 -13 -46 -1 -69 9 -16 1 -44
-13 -42 -38 5 -45 0 -40 -28 5 -24 -1 -35 -37 -70 -24 -22 -46 -41 -50 -41
-21 0 -59 21 -54 30 3 5 1 19 -5 30 -6 12 -12 31 -14 43 -1 12 -20 60 -42 107
-60 126 -76 180 -70 242 2 29 5 62 6 73 0 17 2 17 10 5 8 -12 10 -10 10 10 0
25 43 56 61 44 5 -3 9 0 9 6 0 7 7 7 23 -1 20 -11 21 -11 8 5 -12 14 -12 16 3
10 9 -3 16 -10 16 -15 0 -10 40 9 53 26 5 6 7 3 4 -7 -3 -9 1 -19 9 -22 8 -3
14 -1 14 4 0 6 5 10 10 10 6 0 10 -7 10 -15 0 -14 3 -14 30 0 17 9 30 12 29 8
-4 -25 2 -35 14 -24 8 6 17 8 20 4 4 -3 7 5 7 18 0 17 3 20 9 11 4 -8 12 -13
17 -13 5 1 10 -10 12 -24 5 -35 22 -31 22 5 0 17 -6 33 -14 36 -14 5 -14 33
-1 53 3 5 19 12 35 16 17 4 30 9 30 11 0 3 -12 16 -26 29 -21 20 -29 22 -44
12 -24 -15 -27 -12 -33 46 -8 66 -47 102 -47 42 0 -11 -4 -25 -10 -31 -5 -5
-11 -27 -14 -48 -9 -75 -25 -63 -31 26 -9 122 -50 212 -108 238 -16 7 -32 21
-35 32 -3 11 -10 17 -18 14 -9 -3 -16 4 -20 20 -6 23 -8 24 -24 9 -9 -8 -19
-13 -22 -10 -12 13 -121 45 -170 51 -73 9 -72 9 -84 16 -11 7 -148 20 -195 19
-20 -1 -28 5 -33 21 l-5 23 -17 -21 c-15 -19 -22 -20 -67 -12 -28 5 -79 21
-114 35 -61 24 -71 36 -64 76 1 5 -3 6 -9 2 -6 -4 -8 -15 -5 -26 8 -25 -2 -24
-50 6 -22 13 -59 34 -82 46 -23 13 -45 29 -48 37 -6 15 2 52 12 52 3 0 49 -25
102 -55z m-349 -56 c0 -5 4 -8 9 -6 15 3 171 -115 171 -130 0 -8 5 -11 10 -8
6 3 10 -1 10 -9 0 -9 5 -16 10 -16 19 0 10 -30 -20 -60 -37 -38 -37 -42 -2
-34 32 8 41 20 35 43 -6 25 21 46 38 28 8 -7 43 -37 79 -66 36 -30 72 -61 81
-70 9 -9 28 -24 42 -34 20 -15 28 -33 38 -88 11 -61 10 -71 -4 -87 -10 -11
-16 -33 -16 -53 2 -30 2 -31 6 -6 2 15 8 27 12 27 3 0 15 14 24 30 10 17 22
30 26 30 16 0 20 -44 6 -60 -17 -19 -20 -60 -5 -60 6 0 10 -13 10 -30 l0 -30
35 20 c40 23 49 6 15 -25 l-21 -19 23 -13 c27 -15 51 -17 26 -2 -22 12 -24 33
-2 25 8 -3 13 -2 10 3 -3 5 -2 29 2 53 6 32 5 47 -5 56 -13 13 -18 64 -7 75 9
8 28 -7 121 -101 81 -81 95 -106 72 -129 -8 -8 -7 -13 2 -18 7 -5 10 -4 7 1
-3 5 0 14 7 21 15 14 23 6 82 -82 43 -64 103 -188 103 -212 0 -8 6 -20 13 -27
7 -8 19 -33 26 -57 7 -24 18 -53 24 -64 12 -23 30 -289 22 -323 -4 -15 -2 -21
5 -17 6 4 10 -6 10 -24 0 -17 -4 -31 -10 -31 -5 0 -10 -18 -10 -41 0 -32 -3
-40 -14 -36 -12 5 -15 -3 -13 -31 1 -26 -9 -55 -31 -92 l-32 -55 0 37 c0 20
-4 39 -9 42 -5 3 -8 -19 -7 -48 l1 -54 -115 -81 c-63 -45 -119 -85 -125 -89
-73 -58 -125 -90 -125 -78 0 8 -6 17 -12 19 -9 4 -10 8 -2 14 7 5 8 16 3 28
l-8 20 -1 -20 c-1 -18 -2 -18 -11 -3 -7 12 -6 24 3 38 11 17 11 22 -1 29 -20
13 -26 109 -7 130 8 9 17 30 21 46 4 19 3 25 -2 17 -7 -10 -13 -8 -27 6 -13
15 -14 25 -6 46 5 15 14 24 20 21 5 -3 10 3 10 13 0 12 -9 22 -23 26 -13 3
-29 17 -35 31 l-12 26 50 -7 c58 -8 63 2 26 50 -64 84 -78 165 -40 237 13 26
14 33 2 40 -7 5 -16 9 -20 9 -3 0 -5 20 -5 45 1 25 -1 45 -5 45 -5 0 -8 11 -8
24 0 14 -4 28 -10 31 -5 3 -10 15 -10 25 0 19 -82 149 -102 161 -5 3 -10 10
-10 15 -1 5 -8 19 -16 32 -20 31 -93 238 -100 282 -2 19 -11 39 -18 43 -8 4
-14 17 -14 27 0 18 21 26 53 21 11 -2 9 37 -3 44 -5 3 -22 -1 -38 -9 l-29 -15
-29 60 c-19 41 -27 72 -25 99 3 40 -15 63 -30 39 -10 -15 -9 -16 -49 47 -25
40 -28 50 -30 141 -1 37 -6 53 -17 58 -17 6 -33 -10 -33 -34 0 -8 6 -11 15 -7
13 4 14 2 5 -14 -20 -37 -35 -24 -30 28 1 12 -3 22 -9 22 -6 0 -11 -8 -11 -17
0 -15 -4 -13 -19 7 -11 13 -17 28 -15 32 2 3 0 9 -5 13 -6 3 -8 12 -4 20 3 8
0 15 -6 15 -6 0 -11 4 -11 10 0 5 7 6 17 3 11 -4 14 -3 9 5 -5 8 -2 10 8 6 9
-3 16 -10 16 -15z m74 -195 c3 -8 2 -12 -4 -9 -6 3 -10 10 -10 16 0 14 7 11
14 -7z m113 -146 c-3 -8 -6 -5 -6 6 -1 11 2 17 5 13 3 -3 4 -12 1 -19z m407
-155 c9 -23 -4 -142 -15 -149 -5 -3 -8 32 -7 80 3 84 9 103 22 69z m281 -113
c10 -11 16 -20 13 -20 -3 0 -13 9 -23 20 -10 11 -16 20 -13 20 3 0 13 -9 23
-20z m839 -229 c3 -5 0 -11 -7 -14 -8 -3 -14 1 -14 9 0 16 13 19 21 5z m3912
-203 c3 -11 3 -22 0 -25 -3 -4 -6 -1 -6 6 0 6 -12 16 -27 22 -21 8 -24 12 -14
19 19 11 39 2 47 -22z m-1757 -22 c9 -11 9 -16 -1 -22 -7 -4 -10 -4 -6 1 4 4
3 14 -3 22 -6 7 -9 13 -6 13 2 0 10 -6 16 -14z m50 -50 c18 -22 -2 -25 -21 -4
-14 13 -15 18 -4 18 7 0 19 -6 25 -14z m-1 -52 c14 -15 14 -16 -3 -13 -10 2
-20 10 -23 17 -5 17 6 15 26 -4z m-3858 -34 c27 -53 26 -104 -2 -124 -12 -9
-18 -16 -13 -16 6 0 3 -5 -5 -10 -8 -5 -10 -10 -3 -10 6 0 9 -9 6 -20 -9 -33
-20 -22 -19 18 1 20 10 49 20 64 10 16 16 34 13 40 -2 7 -4 15 -3 18 0 3 -7
18 -17 33 -10 15 -13 27 -7 27 6 0 8 5 5 10 -3 6 -4 10 -1 10 3 0 15 -18 26
-40z m3869 -54 c10 -12 8 -13 -8 -9 -12 3 -18 9 -15 14 7 12 10 11 23 -5z
m-4489 -148 c0 -5 4 -7 10 -3 5 3 17 -6 26 -20 9 -14 27 -28 40 -31 14 -4 30
-14 37 -23 6 -9 27 -23 45 -30 17 -7 32 -19 32 -25 0 -7 3 -6 8 2 7 9 15 6 36
-13 15 -14 30 -25 34 -25 4 0 16 -13 27 -28 15 -21 15 -24 2 -13 -12 9 -17 10
-17 2 0 -6 7 -14 15 -17 8 -4 12 -11 8 -17 -3 -6 -1 -7 5 -3 14 8 64 -23 57
-35 -3 -4 4 -13 15 -19 13 -7 19 -17 16 -26 -3 -9 5 -25 22 -39 15 -14 24 -25
21 -25 -3 0 -18 10 -33 23 -19 17 -25 29 -20 42 6 15 4 17 -14 13 -13 -4 -31
1 -46 13 -13 10 -27 19 -30 19 -30 0 -346 274 -331 288 3 3 -3 14 -12 25 -15
17 -12 16 15 -3 17 -13 32 -28 32 -32z m600 -98 c0 -11 -4 -20 -9 -20 -5 0 -7
9 -4 20 3 11 7 20 9 20 2 0 4 -9 4 -20z m3 -90 c16 -19 16 -20 -1 -20 -11 0
-18 8 -19 20 -1 11 -1 20 0 20 2 0 10 -9 20 -20z m-23 -40 c0 -6 -10 -5 -25 2
-13 6 -22 15 -19 19 6 11 44 -8 44 -21z m30 0 c0 -5 -2 -10 -4 -10 -3 0 -8 5
-11 10 -3 6 -1 10 4 10 6 0 11 -4 11 -10z m11 -24 c-9 -11 -10 -20 -2 -35 13
-24 14 -42 2 -22 -13 20 -41 -3 -42 -33 0 -20 -1 -20 -10 2 -6 17 -5 29 4 43
8 10 16 17 19 14 2 -3 5 2 5 10 0 8 -5 11 -10 8 -5 -3 -8 0 -5 8 3 8 10 14 16
14 5 0 14 3 18 8 13 13 17 -2 5 -17z m42 -51 c9 -19 12 -35 7 -35 -6 0 -10 6
-10 14 0 7 -7 19 -15 26 -16 13 -20 30 -7 30 5 0 16 -16 25 -35z m-144 -50
c-12 -11 -16 -11 -29 3 -13 14 -12 15 3 9 12 -4 20 -1 24 10 5 12 8 13 11 4 2
-7 -2 -19 -9 -26z m111 -21 c0 -19 -4 -34 -10 -34 -5 0 -10 -9 -10 -21 0 -12
-5 -19 -12 -16 -15 5 -12 50 2 55 6 2 10 17 10 33 0 18 4 28 10 24 6 -3 10
-22 10 -41z m188 -194 c20 -30 44 -64 54 -74 9 -11 37 -46 60 -79 24 -33 58
-80 76 -105 l34 -44 -25 -27 c-13 -14 -33 -42 -45 -61 -36 -60 -39 -60 -229
-31 -94 14 -174 29 -178 32 -3 4 -8 31 -10 60 -2 30 -7 64 -9 76 -3 14 0 22 7
20 7 -1 11 6 9 17 -3 14 1 17 12 13 11 -4 16 -1 16 12 0 10 -3 21 -6 24 -11
10 -45 -13 -38 -25 4 -7 2 -8 -5 -4 -7 4 -10 13 -8 19 2 7 0 21 -6 32 -10 19
-9 20 11 2 11 -10 22 -15 25 -10 8 13 -4 63 -15 63 -6 0 -8 -6 -5 -13 3 -8 -3
-14 -15 -14 -14 -1 -18 3 -14 13 3 9 6 19 6 22 0 4 14 7 30 7 25 0 30 -4 30
-23 0 -13 4 -21 9 -18 4 3 6 16 4 30 -6 31 34 77 48 55 6 -10 9 -4 9 18 0 17
6 34 13 36 10 4 10 6 0 6 -7 1 -22 -8 -33 -19 -18 -18 -40 -27 -40 -15 0 2 11
21 25 41 14 20 25 45 25 55 0 11 5 19 10 19 6 0 9 12 8 28 -1 15 4 39 12 54
l13 28 50 -83 c27 -45 65 -107 85 -137z m-298 185 c-7 -9 -15 -13 -19 -10 -3
3 1 10 9 15 21 14 24 12 10 -5z m33 -17 c-8 -42 -50 -78 -50 -43 0 8 6 16 14
19 7 3 18 17 23 31 13 35 21 31 13 -7z m10 -89 c-5 -57 -8 -67 -20 -62 -16 6
-20 45 -8 81 8 22 30 7 28 -19z m51 -30 c-15 -29 -32 -44 -40 -36 -3 3 4 24
16 48 16 30 24 38 30 29 5 -8 3 -25 -6 -41z m5454 -173 c47 -25 142 -141 101
-123 -8 3 -50 21 -94 40 -44 19 -102 38 -130 42 l-50 8 50 23 c58 27 85 30
123 10z m-4699 1 c-2 -1 -13 -9 -24 -17 -19 -14 -19 -14 -6 3 7 9 18 17 24 17
6 0 8 -1 6 -3z m-74 -56 c-3 -6 -11 -11 -17 -11 -6 0 -6 6 2 15 14 17 26 13
15 -4z m4795 -183 c136 -72 300 -253 300 -331 0 -41 -58 -222 -100 -313 -33
-71 -54 -100 -117 -163 -205 -201 -318 -248 -506 -209 -88 18 -103 46 -142
254 -16 87 -19 133 -9 158 8 22 24 10 24 -19 0 -40 49 -159 82 -199 60 -73
158 -97 236 -57 55 28 116 100 140 164 40 106 58 369 26 381 -25 9 -72 7 -79
-4 -3 -5 -2 -10 3 -10 5 0 3 -20 -6 -45 -14 -45 -9 -73 8 -45 13 20 13 -47 1
-161 -10 -93 -32 -148 -75 -188 l-26 -24 0 25 c0 14 -2 41 -5 59 -4 27 -3 30
5 14 8 -16 9 -9 7 30 -2 41 1 50 14 47 12 -2 19 8 24 34 6 34 3 40 -24 61 -33
26 -38 48 -17 76 7 9 11 28 9 41 -4 18 4 33 31 60 l37 35 -33 14 c-40 17 -67
61 -52 85 19 30 57 43 112 39 28 -2 52 0 52 4 0 18 -42 112 -66 149 -22 33
-24 43 -14 55 22 26 91 19 160 -17z m-5013 -170 c-3 -7 -5 -2 -5 12 0 14 2 19
5 13 2 -7 2 -19 0 -25z m593 -9 c0 -5 -4 -9 -10 -9 -5 0 -10 7 -10 16 0 8 5
12 10 9 6 -3 10 -10 10 -16z m50 -9 c0 -5 -7 -10 -16 -10 -8 0 -12 5 -9 10 3
6 10 10 16 10 5 0 9 -4 9 -10z m-3 -52 c-3 -8 -6 -5 -6 6 -1 11 2 17 5 13 3
-3 4 -12 1 -19z m-715 -23 c-12 -22 -27 -2 -18 22 5 12 10 13 17 6 7 -7 8 -17
1 -28z m958 -36 c0 -10 -4 -19 -10 -19 -5 0 -10 12 -10 26 0 14 4 23 10 19 6
-3 10 -15 10 -26z m-1014 -16 c-11 -11 -19 6 -11 24 8 17 8 17 12 0 3 -10 2
-21 -1 -24z m798 22 c3 -8 1 -15 -4 -15 -6 0 -10 7 -10 15 0 8 2 15 4 15 2 0
6 -7 10 -15z m1950 -11 c17 -14 60 -44 96 -67 81 -52 194 -158 208 -195 6 -15
13 -40 16 -55 4 -15 11 -25 17 -22 13 8 4 -26 -31 -130 -32 -95 -57 -146 -116
-238 -47 -73 -76 -92 -154 -102 -23 -3 -45 -7 -49 -9 -27 -17 -255 -24 -349
-10 -189 26 -384 131 -520 279 -60 65 -136 197 -162 280 -7 22 -19 49 -26 60
-30 43 -19 55 133 140 46 26 92 45 103 43 19 -3 19 -6 -12 -68 -54 -110 -42
-241 34 -355 42 -64 178 -179 257 -218 59 -29 74 -32 156 -32 81 0 97 3 155
32 150 74 239 213 256 404 l7 69 -49 0 c-27 0 -59 3 -71 6 -19 5 -23 2 -23
-15 0 -24 4 -25 31 -11 17 10 19 7 19 -33 0 -45 -25 -131 -54 -183 l-15 -29
-2 25 c-1 23 -2 22 -11 -7 -6 -18 -15 -33 -20 -33 -5 0 -13 -12 -19 -27 -13
-38 -69 -75 -118 -76 -21 -1 -37 -5 -35 -9 9 -15 -126 6 -175 28 -119 53 -254
173 -266 236 -3 18 -5 62 -3 98 l3 65 77 40 c43 21 79 37 81 35 3 -3 12 -50
21 -105 26 -168 25 -163 70 -193 93 -62 103 -63 226 -10 98 42 115 56 129 107
8 25 20 56 28 69 20 32 9 42 -45 42 -56 0 -92 21 -92 54 0 29 25 51 76 66 35
11 52 9 124 -9 45 -12 84 -20 85 -19 2 2 -5 27 -15 56 -10 28 -16 52 -13 52 3
0 19 -12 37 -26z m-2044 -45 c0 -5 -4 -9 -10 -9 -5 0 -10 7 -10 16 0 8 5 12
10 9 6 -3 10 -10 10 -16z m-700 1 c0 -12 -28 -25 -36 -17 -9 9 6 27 22 27 8 0
14 -5 14 -10z m750 -56 c0 -9 -5 -14 -12 -12 -18 6 -21 28 -4 28 9 0 16 -7 16
-16z m-1533 -66 c-3 -7 -5 -2 -5 12 0 14 2 19 5 13 2 -7 2 -19 0 -25z m609
-13 c-14 -11 -26 -31 -26 -43 0 -22 -32 -41 -103 -62 -25 -8 -27 -7 -22 11 4
12 2 19 -6 19 -7 0 -2 9 11 20 13 11 29 20 36 20 8 0 40 18 71 40 36 25 60 35
62 28 2 -6 -8 -21 -23 -33z m94 31 c0 -3 -4 -8 -10 -11 -5 -3 -10 -1 -10 4 0
6 5 11 10 11 6 0 10 -2 10 -4z m-50 -41 c0 -8 -10 -19 -21 -26 -21 -11 -21
-11 -3 15 22 30 24 31 24 11z m5017 -57 c-3 -8 -6 -5 -6 6 -1 11 2 17 5 13 3
-3 4 -12 1 -19z m-120 -3 c12 -8 24 -28 28 -45 4 -16 17 -38 29 -48 13 -10 27
-29 31 -42 4 -14 12 -28 17 -31 6 -4 7 -26 3 -53 -7 -44 -9 -46 -39 -46 -103
1 -206 118 -206 234 0 39 96 60 137 31z m-5750 -47 c-3 -7 -5 -2 -5 12 0 14 2
19 5 13 2 -7 2 -19 0 -25z m5873 -37 c-1 -25 -1 -26 -16 -6 -8 11 -22 18 -32
17 -13 -3 -14 -1 -4 11 20 23 52 9 52 -22z m-5870 -39 c-7 -13 -9 -8 -9 23 0
35 1 37 10 17 6 -15 5 -30 -1 -40z m15 -80 c0 -18 -20 -15 -23 4 -3 10 1 15
10 12 7 -3 13 -10 13 -16z m151 -99 c3 -21 7 -46 9 -57 2 -10 -3 -25 -11 -33
-12 -13 -14 -12 -14 4 0 10 -7 36 -14 58 -13 35 -12 42 1 58 20 22 24 18 29
-30z m3905 -57 c-16 -34 -41 -72 -54 -84 -19 -18 -14 -2 27 80 31 64 52 96 54
84 2 -10 -10 -46 -27 -80z m103 12 l18 -52 -22 -16 c-12 -8 -33 -26 -46 -39
-13 -13 -42 -27 -64 -31 l-41 -7 26 31 c14 17 42 61 63 98 20 37 39 68 42 68
3 0 14 -23 24 -52z m-3970 -112 c9 -14 12 -28 7 -31 -5 -3 -12 4 -16 15 -3 11
-11 20 -16 20 -5 0 -9 5 -9 10 0 18 17 11 34 -14z m-78 -203 c-7 -7 -26 7 -26
19 0 6 6 6 15 -2 9 -7 13 -15 11 -17z m11 -60 c-3 -10 -5 -2 -5 17 0 19 2 27
5 18 2 -10 2 -26 0 -35z m493 33 c0 -8 -4 -18 -10 -21 -5 -3 -10 3 -10 14 0
12 5 21 10 21 6 0 10 -6 10 -14z m-471 -58 c-4 -33 2 -58 15 -58 21 0 58 -76
43 -88 -32 -24 -38 -24 -31 2 5 21 3 26 -13 26 -10 0 -26 13 -36 29 -16 28
-16 32 0 65 17 37 25 45 22 24z m430 -43 c38 -44 39 -52 2 -60 -15 -3 -33 -16
-40 -28 -9 -18 -7 -30 14 -71 27 -54 32 -86 12 -86 -7 0 -35 16 -62 35 -28 19
-62 40 -77 46 -35 14 -35 29 -2 60 14 13 44 50 66 82 23 31 44 57 48 57 5 0
22 -16 39 -35z m-195 -253 c24 -34 27 -44 17 -56 -9 -10 -19 -12 -34 -7 -18 7
-23 19 -27 60 -7 61 3 62 44 3z m130 -293 c38 -119 44 -145 23 -114 -13 21
-51 136 -62 193 -13 65 5 29 39 -79z m53 -621 c-3 -21 -13 -51 -23 -66 -17
-25 -18 -26 -24 -7 -3 11 -12 32 -20 48 -12 25 -11 29 6 41 17 13 20 12 26 -5
4 -10 12 -19 18 -19 13 0 13 27 0 35 -6 4 -8 11 -4 16 13 21 26 -6 21 -43z
m-10 -140 c-3 -7 -5 -2 -5 12 0 14 2 19 5 13 2 -7 2 -19 0 -25z m137 -17 c9
-28 16 -59 16 -71 0 -12 4 -18 11 -15 6 4 7 19 4 36 -4 19 -3 29 5 29 12 0 57
-49 75 -81 6 -10 15 -19 20 -20 28 -6 44 -25 39 -46 -4 -13 -3 -35 0 -49 6
-20 10 -23 21 -14 10 9 16 7 24 -7 9 -16 10 -16 11 5 0 32 20 17 21 -16 1 -21
2 -22 6 -7 6 23 23 45 23 28 0 -6 9 -13 20 -16 12 -3 20 -14 21 -29 1 -17 2
-19 6 -5 7 29 38 16 38 -16 -1 -15 3 -27 7 -27 4 0 8 7 8 15 0 20 41 13 79
-12 27 -18 31 -20 56 -22 8 0 12 -7 9 -16 -4 -8 -1 -15 5 -15 6 0 11 5 11 10
0 6 14 3 31 -6 25 -13 29 -18 18 -26 -11 -7 -11 -11 -1 -15 6 -2 10 -9 6 -14
-3 -5 2 -9 10 -9 9 0 16 -5 16 -12 0 -6 9 -3 21 8 20 18 21 18 31 1 7 -13 13
-15 22 -8 21 18 156 -56 156 -85 0 -7 7 -14 15 -18 19 -7 20 -26 1 -26 -7 0
-19 -7 -26 -15 -7 -9 -19 -14 -26 -11 -7 3 -16 -4 -19 -15 -4 -10 -13 -19 -22
-19 -11 0 -13 5 -8 18 4 9 10 29 12 43 4 22 1 27 -20 31 -17 3 -28 -1 -36 -14
-9 -15 -19 -18 -42 -13 -19 4 -29 3 -29 -5 0 -7 -7 -10 -15 -6 -9 3 -18 -1
-21 -9 -4 -8 -14 -15 -23 -15 -26 0 -63 30 -57 47 3 8 1 11 -4 8 -6 -3 -13 1
-16 9 -5 14 -8 14 -21 1 -8 -8 -19 -15 -24 -15 -14 0 -11 20 4 20 8 1 7 5 -4
13 -9 7 -18 19 -22 27 -3 9 -6 4 -6 -12 -1 -39 -17 -43 -26 -5 -4 17 -9 26
-12 20 -2 -7 -11 -13 -18 -13 -7 0 -15 6 -18 13 -3 9 -7 9 -18 0 -8 -6 -20 -9
-26 -5 -14 9 -20 43 -10 60 5 7 4 12 -2 12 -6 0 -14 -12 -17 -26 -10 -38 -26
-14 -28 40 -1 31 -5 46 -15 46 -7 0 -11 6 -7 15 4 12 2 13 -14 3 -23 -15 -32
-8 -34 25 0 14 -4 23 -8 21 -9 -6 -29 31 -22 39 3 3 -3 3 -14 0 -14 -3 -27 5
-47 31 -31 41 -50 47 -42 13 7 -26 -11 -61 -20 -39 -3 7 -16 25 -29 39 -14 15
-24 38 -24 54 0 16 -4 29 -10 29 -5 0 -10 -5 -10 -11 0 -5 -5 -7 -10 -4 -6 4
-8 11 -5 16 11 17 -7 97 -27 119 -15 16 -17 25 -9 33 8 8 11 7 11 -6 0 -9 5
-18 10 -18 29 -5 35 -3 36 11 4 54 8 52 28 -9z m-179 -166 c3 -16 8 -43 9 -59
2 -17 8 -32 14 -34 7 -2 12 -16 12 -30 l0 -27 -20 25 c-11 14 -20 39 -20 57 0
17 -5 44 -12 60 -6 15 -10 34 -9 41 1 6 -5 12 -13 12 -8 0 -17 -6 -19 -12 -4
-9 -6 -8 -6 3 -1 8 5 21 11 27 16 16 43 -17 53 -63z m6293 -40 c4 -59 -42
-225 -87 -319 -75 -153 -185 -270 -324 -348 -33 -18 -71 -44 -85 -57 l-26 -24
-44 24 c-39 20 -50 34 -85 107 -22 46 -40 96 -40 110 0 15 22 72 49 126 42 84
55 102 89 121 177 98 429 243 470 271 63 43 79 41 83 -11z m-6198 -101 c0 -7
-4 -16 -10 -19 -5 -3 -10 -17 -10 -31 0 -14 -4 -22 -10 -19 -11 7 -13 58 -3
94 6 23 7 23 20 6 7 -11 13 -24 13 -31z m230 20 c0 -23 -20 -55 -31 -49 -13 9
-11 52 4 58 21 9 27 7 27 -9z m-196 -52 c11 -18 18 -82 8 -82 -17 0 -43 50
-37 70 6 20 20 26 29 12z m292 -57 c6 -24 0 -44 -10 -34 -11 11 -17 59 -7 59
6 0 13 -11 17 -25z m-220 -59 c15 -12 17 -17 6 -28 -10 -10 -19 -9 -47 6 -19
11 -35 23 -35 28 0 13 55 9 76 -6z m1141 -28 c-3 -8 -6 -5 -6 6 -1 11 2 17 5
13 3 -3 4 -12 1 -19z m-417 -92 c0 -14 -5 -28 -11 -31 -15 -10 -25 3 -12 16 6
6 9 18 6 25 -3 8 0 14 6 14 6 0 11 -11 11 -24z m-70 -41 c0 -24 -24 -44 -37
-31 -9 8 14 56 27 56 5 0 10 -11 10 -25z m-427 -9 c9 -7 17 -23 17 -35 0 -25
-16 -28 -24 -3 -3 11 -4 10 -3 -5 1 -12 -2 -23 -8 -25 -5 -2 -11 16 -13 40 -3
44 2 50 31 28z m-73 -29 c0 -20 -1 -20 -16 -5 -9 9 -13 21 -9 27 10 16 25 3
25 -22z m560 -14 c0 -20 -3 -24 -11 -16 -7 7 -9 19 -6 27 10 24 17 19 17 -11z
m105 -6 c12 -10 14 -16 7 -21 -15 -9 -16 -26 -2 -26 6 0 10 7 10 15 0 18 29
19 63 2 24 -12 24 -14 11 -47 -8 -18 -11 -42 -8 -53 6 -20 5 -20 -27 1 -19 12
-46 28 -61 34 -34 15 -40 31 -32 74 7 38 12 40 39 21z m-63 -22 c-5 -29 -5
-29 -21 3 -10 19 -9 22 7 22 15 0 18 -5 14 -25z m-382 -31 c0 -8 -4 -12 -10
-9 -5 3 -10 -1 -10 -10 0 -9 -4 -13 -10 -10 -19 12 -11 45 10 45 11 0 20 -7
20 -16z m-50 -16 c0 -18 -2 -20 -9 -8 -6 8 -7 18 -5 22 9 14 14 9 14 -14z
m664 12 c17 -6 26 -17 26 -31 0 -17 3 -19 14 -10 7 6 25 10 39 9 22 -2 26 -8
31 -49 8 -59 -7 -104 -32 -94 -9 4 -25 10 -34 12 -10 3 -18 13 -18 23 0 10
-10 20 -21 23 -16 4 -20 10 -14 24 15 36 11 58 -12 61 -15 2 -23 10 -23 23 0
22 8 23 44 9z m-587 -42 c-3 -8 -6 -5 -6 6 -1 11 2 17 5 13 3 -3 4 -12 1 -19z
m43 13 c0 -6 -4 -13 -10 -16 -5 -3 -10 1 -10 9 0 9 5 16 10 16 6 0 10 -4 10
-9z m757 -23 c45 -20 52 -32 61 -109 12 -97 8 -105 -34 -73 -32 25 -39 49 -10
38 9 -3 15 5 18 24 3 25 1 28 -15 24 -14 -4 -16 -7 -5 -13 8 -5 9 -9 2 -9 -20
0 -37 29 -40 71 -3 52 -10 58 -25 25 -7 -14 -16 -26 -21 -26 -11 0 -10 4 4 35
13 28 25 31 65 13z m-1164 -44 c9 -4 17 -10 17 -15 0 -5 9 -9 19 -9 11 0 27
-14 39 -34 l21 -35 -25 -16 c-20 -13 -22 -19 -14 -35 8 -14 8 -20 0 -20 -6 0
-18 16 -26 36 -9 23 -20 34 -29 31 -14 -6 -25 21 -25 61 0 13 -4 21 -9 17 -6
-3 -9 4 -8 15 1 11 6 18 12 15 5 -3 18 -8 28 -11z m1285 -56 c2 -26 -2 -37
-13 -42 -26 -10 -35 2 -35 43 0 33 3 37 23 36 18 -1 23 -8 25 -37z m50 -37
c15 -14 22 -30 22 -55 l0 -37 -30 34 c-16 19 -30 44 -30 56 0 26 8 26 38 2z
m-1168 -17 c0 -8 5 -14 10 -14 6 0 15 -12 20 -26 9 -22 13 -24 25 -14 13 11
18 10 30 -6 8 -10 15 -23 15 -27 0 -5 4 -6 9 -3 5 3 15 -1 22 -10 12 -14 14
-13 21 6 8 23 28 19 28 -6 0 -8 5 -12 10 -9 6 3 10 1 10 -6 0 -7 3 -9 7 -6 3
4 11 3 17 -1 6 -5 38 -17 71 -27 33 -10 69 -25 80 -34 18 -15 19 -15 6 2 -12
15 -12 17 3 11 9 -3 17 -14 17 -23 1 -14 2 -13 6 2 2 9 9 14 14 11 6 -3 16 2
24 12 13 18 14 17 24 -9 6 -16 11 -33 11 -38 0 -7 6 -7 17 0 25 13 53 -5 53
-34 0 -14 -4 -25 -9 -25 -10 0 -25 30 -22 43 3 18 -38 -15 -44 -34 -6 -19 -8
-20 -23 -5 -14 14 -14 17 2 34 14 17 15 20 2 25 -11 4 -13 1 -9 -10 4 -11 2
-14 -5 -9 -8 5 -12 -1 -12 -18 0 -30 0 -30 -37 -15 -28 11 -28 11 -5 20 34 13
26 25 -20 28 -23 1 -48 7 -55 13 -7 5 -20 7 -29 4 -9 -3 -35 3 -59 13 -24 11
-46 17 -48 14 -3 -2 -18 4 -33 14 -16 10 -25 13 -21 6 5 -7 0 -9 -13 -6 -11 3
-20 9 -20 13 0 4 -20 17 -45 30 -25 13 -45 29 -45 37 0 7 -5 13 -11 13 -5 0
-7 5 -4 10 3 6 2 10 -3 10 -14 0 -22 54 -9 62 14 9 27 1 27 -18z m1026 -85 c7
-40 24 -54 24 -19 0 11 5 20 11 20 7 0 9 -11 6 -29 -5 -24 -2 -31 14 -36 30
-10 46 10 27 32 -18 22 -29 49 -21 57 10 10 63 -35 63 -54 0 -11 8 -20 22 -22
12 -2 23 -9 26 -17 3 -8 0 -11 -7 -7 -6 4 -11 1 -11 -8 0 -8 5 -18 11 -21 6
-4 8 -13 5 -20 -4 -13 44 -30 73 -26 7 1 11 -1 8 -6 -2 -4 -1 -17 4 -28 7 -15
8 -11 6 18 -4 44 2 46 31 12 13 -14 27 -23 32 -20 6 4 17 -1 26 -9 9 -9 20
-14 24 -11 5 3 14 -4 20 -15 6 -12 21 -20 35 -20 30 0 76 -20 70 -30 -3 -4 10
-11 29 -14 40 -8 122 -64 110 -76 -16 -14 -71 -19 -83 -7 -8 8 -11 8 -11 -1 0
-7 -10 -12 -22 -12 -30 0 -52 -15 -44 -29 4 -6 16 -11 26 -11 10 0 22 -5 25
-11 4 -6 14 -8 22 -5 43 17 233 -50 233 -81 0 -8 4 -12 9 -8 5 3 22 -6 36 -19
15 -14 32 -23 39 -20 7 3 26 -8 42 -25 15 -16 39 -33 52 -36 30 -7 100 -55
124 -84 17 -20 17 -21 -2 -21 -10 0 -50 11 -87 25 -37 14 -80 28 -96 30 -15 2
-31 6 -35 9 -11 6 -196 26 -259 27 -29 1 -53 6 -53 10 0 5 -6 9 -14 9 -8 0
-17 6 -19 13 -4 9 -8 9 -15 -2 -14 -20 -52 -4 -52 22 -1 20 -2 21 -14 5 -12
-17 -14 -17 -31 2 -10 12 -25 18 -32 16 -7 -3 -19 2 -28 10 -8 8 -19 12 -25 9
-11 -7 -88 29 -157 73 -75 47 -68 80 11 57 47 -14 96 -20 96 -11 0 16 -14 36
-26 36 -7 0 -20 10 -28 22 -9 12 -19 19 -22 15 -10 -9 -64 32 -64 48 0 21 51
3 83 -29 15 -15 40 -29 57 -32 18 -4 30 -13 30 -23 0 -13 2 -14 9 -2 12 19 3
41 -18 41 -14 1 -14 2 1 11 22 12 35 76 19 92 -9 9 -15 8 -23 -7 -11 -19 -11
-19 -26 0 -10 13 -16 15 -19 7 -3 -7 -9 -13 -15 -13 -6 0 -7 7 -4 16 3 8 1 24
-5 36 -10 19 -11 19 -25 1 -13 -17 -14 -17 -20 5 -3 12 -13 22 -22 22 -9 0
-37 18 -63 40 -26 22 -57 40 -68 40 -12 0 -21 4 -21 9 0 5 -13 14 -29 19 -28
10 -29 12 -20 53 6 23 12 46 15 51 10 16 24 -3 30 -43z m169 -8 c3 -5 1 -12
-5 -16 -5 -3 -10 1 -10 9 0 18 6 21 15 7z m115 -41 c24 -8 24 -8 -7 -9 -17 -1
-35 4 -38 9 -7 11 9 11 45 0z m-1285 -10 c3 -5 1 -10 -4 -10 -6 0 -11 5 -11
10 0 6 2 10 4 10 3 0 8 -4 11 -10z m1205 -30 c0 -5 -4 -10 -10 -10 -5 0 -10 5
-10 10 0 6 5 10 10 10 6 0 10 -4 10 -10z m31 -53 c-8 -8 -11 -7 -11 4 0 9 3
19 7 23 4 4 9 2 11 -4 3 -7 -1 -17 -7 -23z m-616 -27 c6 -20 0 -40 -13 -40
-20 1 -34 19 -27 39 8 27 32 27 40 1z m39 -33 c-3 -9 -10 -17 -15 -17 -11 0
-12 34 -2 44 11 11 24 -9 17 -27z m637 -91 c-6 -7 -8 -16 -4 -19 3 -4 2 -7 -4
-7 -15 0 -23 38 -9 43 18 7 28 -4 17 -17z m-1166 -25 c3 -5 1 -12 -5 -16 -5
-3 -10 1 -10 9 0 18 6 21 15 7z m175 -15 c0 -17 -27 -29 -35 -16 -4 6 -3 15 0
20 9 15 35 12 35 -4z m281 -30 c119 -45 119 -45 115 -83 -5 -39 17 -42 22 -4
4 28 37 24 38 -4 2 -46 4 -55 13 -55 5 0 12 12 15 26 6 24 19 26 22 3 3 -22 5
-23 13 -11 6 11 28 1 94 -42 98 -65 111 -79 104 -105 -4 -17 -2 -18 13 -9 20
13 23 11 82 -62 22 -28 38 -61 43 -87 4 -27 11 -40 19 -37 16 6 36 -38 36 -81
0 -27 -3 -32 -18 -28 -32 8 -120 96 -124 123 -2 19 -9 25 -28 25 -15 0 -25 6
-25 14 0 8 -8 15 -19 17 -10 1 -26 11 -37 22 -10 11 -56 43 -103 72 -47 28
-88 55 -91 61 -4 5 -10 7 -15 4 -12 -7 -40 41 -40 70 0 23 -2 24 -20 15 -11
-6 -20 -15 -20 -21 0 -6 5 -7 10 -4 11 7 14 -8 4 -18 -11 -11 -62 25 -68 46
-4 16 -8 18 -19 8 -24 -19 -120 29 -110 55 5 13 7 13 14 3 4 -8 10 -11 13 -8
10 10 -26 50 -39 45 -8 -3 -19 2 -25 10 -7 8 -19 14 -28 14 -27 0 -7 10 28 14
31 4 33 3 15 -10 -22 -16 -8 -18 29 -4 32 12 34 37 4 43 -22 4 -22 4 -2 6 12
0 50 -10 85 -23z m-229 -31 c-2 -14 -8 -25 -13 -25 -14 0 -11 38 4 43 6 3 13
6 13 6 1 1 -1 -10 -4 -24z m48 -19 c0 -3 -4 -8 -10 -11 -5 -3 -10 -1 -10 4 0
6 5 11 10 11 6 0 10 -2 10 -4z m50 -32 c0 -8 -4 -12 -10 -9 -5 3 -10 10 -10
16 0 5 5 9 10 9 6 0 10 -7 10 -16z m1515 -334 c3 -5 -3 -10 -14 -10 -11 0 -23
5 -26 10 -3 6 3 10 14 10 11 0 23 -4 26 -10z m-1000 -130 c-5 -16 -10 -19 -18
-11 -7 7 -6 15 3 26 17 20 24 13 15 -15z m36 -36 c-15 -34 -20 -28 -14 14 4
23 9 30 16 23 7 -7 7 -18 -2 -37z m-641 0 c0 -2 -9 0 -20 6 -11 6 -20 13 -20
16 0 2 9 0 20 -6 11 -6 20 -13 20 -16z m760 -80 c30 -30 47 -52 38 -48 -13 4
-18 1 -18 -10 0 -9 5 -16 11 -16 6 0 8 -9 4 -20 -8 -24 10 -27 19 -3 6 13 11
10 32 -20 13 -20 27 -51 30 -69 4 -18 12 -38 19 -43 14 -11 8 -75 -6 -75 -12
0 -11 21 0 40 13 20 2 35 -12 15 -10 -13 -19 -5 -62 52 -27 38 -55 81 -62 96
-7 16 -17 26 -23 22 -5 -3 -10 -2 -10 2 0 5 -18 30 -40 57 l-41 49 23 12 c36
20 40 18 98 -41z m-682 25 c15 -11 30 -28 33 -36 3 -9 16 -18 29 -20 24 -3 52
-32 44 -45 -3 -5 4 -8 15 -8 14 0 19 -5 15 -15 -4 -8 -3 -23 0 -32 6 -15 8
-15 16 -3 5 8 11 12 14 9 3 -2 1 -11 -4 -19 -8 -12 -17 -6 -49 30 -75 84 -110
118 -117 111 -4 -3 -4 -1 0 6 3 6 -4 19 -16 27 -12 9 -19 16 -14 16 4 0 20 -9
34 -21z m1247 -238 c3 -5 1 -12 -5 -16 -5 -3 -10 1 -10 9 0 18 6 21 15 7z
m-393 -123 c-15 -15 -27 14 -17 40 6 15 8 15 18 -6 7 -16 7 -26 -1 -34z"/>
<path d="M6720 8221 c0 -5 7 -11 15 -15 9 -3 15 0 15 9 0 8 -7 15 -15 15 -8 0
-15 -4 -15 -9z"/>
<path d="M6736 8141 c-4 -7 -5 -15 -2 -18 9 -9 19 4 14 18 -4 11 -6 11 -12 0z"/>
<path d="M6657 8098 c-2 -7 0 -24 5 -36 4 -13 6 -27 3 -32 -3 -5 -1 -11 5 -15
6 -3 13 1 16 9 3 9 10 14 14 11 4 -3 10 2 14 10 3 8 13 15 23 16 16 0 15 1 -2
8 -11 5 -25 4 -32 -1 -10 -8 -13 -4 -13 16 0 27 -24 37 -33 14z"/>
<path d="M6590 8030 c0 -5 5 -10 10 -10 6 0 10 5 10 10 0 6 -4 10 -10 10 -5 0
-10 -4 -10 -10z"/>
<path d="M6595 7911 c-3 -5 -1 -12 5 -16 5 -3 10 1 10 9 0 18 -6 21 -15 7z"/>
<path d="M6670 7890 c0 -5 5 -10 11 -10 5 0 7 5 4 10 -3 6 -8 10 -11 10 -2 0
-4 -4 -4 -10z"/>
<path d="M6608 7816 c-3 -15 0 -27 8 -30 10 -4 14 3 14 24 0 36 -16 40 -22 6z"/>
<path d="M2210 7260 c0 -5 5 -10 10 -10 6 0 10 5 10 10 0 6 -4 10 -10 10 -5 0
-10 -4 -10 -10z"/>
<path d="M2420 7030 c0 -11 5 -20 10 -20 6 0 10 9 10 20 0 11 -4 20 -10 20 -5
0 -10 -9 -10 -20z"/>
<path d="M2470 6910 c0 -5 5 -10 10 -10 6 0 10 5 10 10 0 6 -4 10 -10 10 -5 0
-10 -4 -10 -10z"/>
<path d="M2187 6836 c-3 -8 -2 -18 3 -21 13 -8 24 15 12 27 -6 6 -11 4 -15 -6z"/>
<path d="M2306 6771 c-4 -7 -5 -15 -2 -18 9 -9 19 4 14 18 -4 11 -6 11 -12 0z"/>
<path d="M2157 6754 c-4 -4 -7 -14 -7 -23 0 -11 3 -12 11 -4 6 6 10 16 7 23
-2 6 -7 8 -11 4z"/>
<path d="M2396 6644 c-4 -9 -4 -19 -1 -22 2 -3 7 3 11 12 4 9 4 19 1 22 -2 3
-7 -3 -11 -12z"/>
<path d="M2342 6590 c-5 -14 -17 -32 -26 -39 -18 -15 -22 -41 -6 -41 5 0 21
12 35 26 22 22 25 30 17 52 l-10 27 -10 -25z"/>
<path d="M2240 6556 c0 -8 5 -18 10 -21 6 -3 10 1 10 9 0 8 -4 18 -10 21 -5 3
-10 -1 -10 -9z"/>
<path d="M2310 6445 c0 -15 4 -24 10 -20 6 3 10 12 10 20 0 8 -4 17 -10 20 -6
4 -10 -5 -10 -20z"/>
<path d="M2211 6434 c0 -11 3 -14 6 -6 3 7 2 16 -1 19 -3 4 -6 -2 -5 -13z"/>
<path d="M2164 6389 c-3 -6 -1 -16 5 -22 8 -8 11 -5 11 11 0 24 -5 28 -16 11z"/>
<path d="M985 7388 c4 -13 9 -35 12 -50 3 -15 9 -25 14 -22 14 8 10 64 -5 80
-21 20 -29 17 -21 -8z"/>
<path d="M1110 7284 c0 -25 4 -43 9 -40 12 8 12 86 0 86 -5 0 -9 -21 -9 -46z"/>
<path d="M1141 7104 c0 -11 3 -14 6 -6 3 7 2 16 -1 19 -3 4 -6 -2 -5 -13z"/>
<path d="M1326 7033 c-6 -14 -5 -15 5 -6 7 7 10 15 7 18 -3 3 -9 -2 -12 -12z"/>
<path d="M1584 6707 c-6 -21 -15 -32 -26 -31 -11 1 -18 -5 -18 -16 0 -28 55
-48 64 -23 3 8 10 12 16 8 5 -3 3 7 -5 22 -8 15 -12 35 -9 45 2 9 1 19 -4 22
-4 2 -12 -10 -18 -27z"/>
<path d="M1270 6679 c0 -5 5 -7 10 -4 6 3 10 8 10 11 0 2 -4 4 -10 4 -5 0 -10
-5 -10 -11z"/>
<path d="M1320 6640 c0 -5 7 -7 15 -4 8 4 15 8 15 10 0 2 -7 4 -15 4 -8 0 -15
-4 -15 -10z"/>
<path d="M1829 6567 c7 -32 30 -44 39 -19 2 6 -3 12 -12 12 -9 0 -16 6 -16 14
0 8 -4 17 -9 20 -4 3 -5 -9 -2 -27z"/>
<path d="M1391 6535 c1 -43 2 -46 10 -24 6 16 6 35 0 50 -8 20 -10 16 -10 -26z"/>
<path d="M1440 6491 c0 -12 5 -21 10 -21 6 0 10 6 10 14 0 8 -4 18 -10 21 -5
3 -10 -3 -10 -14z"/>
<path d="M1890 6434 c0 -8 5 -12 10 -9 6 4 8 11 5 16 -9 14 -15 11 -15 -7z"/>
<path d="M1940 6320 c0 -19 3 -21 12 -12 9 9 9 15 0 24 -9 9 -12 7 -12 -12z"/>
<path d="M1440 6306 c0 -8 5 -18 10 -21 6 -3 10 3 10 14 0 12 -4 21 -10 21 -5
0 -10 -6 -10 -14z"/>
<path d="M1507 6233 c-4 -3 -7 -19 -7 -33 0 -15 -7 -33 -15 -40 -30 -25 -15
-90 21 -90 19 0 24 5 24 26 0 14 4 23 10 19 16 -10 12 2 -7 21 -12 11 -16 30
-14 60 2 44 0 50 -12 37z"/>
<path d="M1490 5656 c0 -8 -2 -21 -5 -28 -4 -9 2 -14 15 -15 22 -2 23 1 14 35
-7 24 -24 30 -24 8z"/>
<path d="M1510 5563 c0 -13 5 -23 10 -23 13 0 13 11 0 30 -8 12 -10 11 -10 -7z"/>
<path d="M1526 5494 c-8 -21 -8 -24 3 -24 5 0 11 9 14 20 6 24 -8 27 -17 4z"/>
<path d="M950 5506 c0 -8 -3 -23 -6 -33 -6 -15 -4 -16 6 -6 17 16 24 53 10 53
-6 0 -10 -6 -10 -14z"/>
<path d="M911 5446 c-16 -19 -11 -29 8 -17 7 5 12 14 9 21 -3 9 -8 7 -17 -4z"/>
<path d="M915 5349 c-4 -6 -4 -13 -1 -16 3 -4 6 -1 6 6 0 7 5 9 12 5 7 -4 8
-3 4 4 -9 15 -13 15 -21 1z"/>
<path d="M6237 4684 c-4 -4 -7 -14 -7 -23 0 -11 3 -12 11 -4 6 6 10 16 7 23
-2 6 -7 8 -11 4z"/>
<path d="M940 4656 c0 -2 7 -9 15 -16 13 -11 14 -10 9 4 -5 14 -24 23 -24 12z"/>
<path d="M1117 2326 c-4 -10 -1 -13 8 -9 8 3 12 9 9 14 -7 12 -11 11 -17 -5z"/>
<path d="M1207 2249 c7 -7 15 -10 18 -7 3 3 -2 9 -12 12 -14 6 -15 5 -6 -5z"/>
<path d="M1390 2210 c0 -5 5 -10 11 -10 5 0 7 5 4 10 -3 6 -8 10 -11 10 -2 0
-4 -4 -4 -10z"/>
<path d="M2221 1694 c0 -11 3 -14 6 -6 3 7 2 16 -1 19 -3 4 -6 -2 -5 -13z"/>
<path d="M2210 1500 c0 -5 5 -10 10 -10 6 0 10 5 10 10 0 6 -4 10 -10 10 -5 0
-10 -4 -10 -10z"/>
<path d="M2361 1394 c0 -11 3 -14 6 -6 3 7 2 16 -1 19 -3 4 -6 -2 -5 -13z"/>
<path d="M1866 1075 c4 -8 7 -15 9 -15 1 0 8 7 15 15 10 13 9 15 -8 15 -15 0
-20 -5 -16 -15z"/>
<path d="M2342 685 c0 -16 2 -22 5 -12 2 9 2 23 0 30 -3 6 -5 -1 -5 -18z"/>
<path d="M2875 6370 c3 -5 8 -10 11 -10 2 0 4 5 4 10 0 6 -5 10 -11 10 -5 0
-7 -4 -4 -10z"/>
<path d="M4853 6186 c4 -10 7 -22 7 -27 0 -5 5 -9 11 -9 15 0 7 43 -10 48 -10
3 -12 0 -8 -12z"/>
<path d="M4780 6178 c0 -9 5 -20 10 -23 13 -8 13 5 0 25 -8 13 -10 13 -10 -2z"/>
<path d="M10 5981 c0 -64 2 -72 15 -61 8 7 12 16 9 21 -3 5 2 6 10 3 15 -6 17
18 3 32 -4 4 -7 14 -7 23 0 9 -7 25 -15 35 -14 18 -15 13 -15 -53z"/>
<path d="M6210 5992 c-146 -64 -294 -156 -448 -277 -85 -68 -107 -99 -98 -144
3 -14 2 -55 -3 -91 -12 -97 15 -142 65 -106 10 8 30 12 45 9 21 -4 33 3 68 46
77 92 308 236 416 260 86 19 214 31 263 25 46 -5 62 -10 174 -54 49 -19 63
-20 93 -10 22 7 35 18 35 29 0 9 5 22 10 27 18 18 -1 74 -35 101 -45 36 -240
135 -305 155 -30 10 -77 25 -105 34 -84 27 -105 26 -175 -4z"/>
<path d="M2706 5981 c-4 -7 -5 -15 -2 -18 9 -9 19 4 14 18 -4 11 -6 11 -12 0z"/>
<path d="M10 5648 l0 -33 102 2 c89 1 115 -3 194 -28 50 -16 100 -29 110 -29
10 0 39 -9 64 -20 l45 -20 -30 25 c-16 14 -55 33 -85 41 -30 9 -87 27 -126 40
-39 13 -113 28 -164 34 -51 6 -97 13 -101 16 -5 3 -9 -10 -9 -28z"/>
<path d="M4630 5307 c0 -3 12 -37 26 -74 38 -102 74 -274 75 -361 1 -54 -7
-110 -27 -187 -34 -134 -35 -208 -5 -295 12 -35 33 -111 47 -169 28 -119 34
-133 45 -104 9 24 -7 106 -45 237 -27 93 -33 181 -16 251 5 22 12 60 15 85 3
25 10 69 15 99 15 82 12 139 -10 225 -28 112 -120 335 -120 293z"/>
<path d="M2650 4943 c0 -5 7 -18 15 -29 15 -18 15 -18 13 5 -3 23 -28 44 -28
24z"/>
<path d="M2692 4898 c3 -7 20 -14 39 -16 31 -2 32 -1 14 10 -29 18 -58 21 -53
6z"/>
<path d="M2811 4844 c0 -11 3 -14 6 -6 3 7 2 16 -1 19 -3 4 -6 -2 -5 -13z"/>
<path d="M2723 4783 c7 -23 13 -31 15 -20 2 9 8 17 13 17 5 0 1 9 -8 20 -26
30 -32 24 -20 -17z"/>
<path d="M7665 4474 c-27 -25 -107 -88 -177 -141 -71 -52 -128 -99 -128 -104
0 -4 21 3 48 16 26 13 61 27 77 30 68 13 184 20 225 13 58 -10 121 -38 114
-50 -4 -6 3 -5 15 1 11 7 21 16 21 21 0 35 -157 67 -272 55 -38 -3 -68 -4 -68
-1 0 6 104 106 180 174 19 17 31 31 25 31 -5 0 -32 -20 -60 -45z"/>
<path d="M6897 4474 c-8 -32 -48 -101 -83 -144 -61 -74 -82 -94 -124 -115 -40
-20 -60 -41 -60 -61 0 -3 12 -9 26 -15 36 -13 103 19 148 73 50 58 108 198
104 251 l-3 42 -8 -31z"/>
<path d="M5355 4256 c-33 -7 -76 -20 -95 -29 l-35 -15 30 -1 c46 -1 206 19
244 31 24 8 30 13 20 19 -19 12 -92 10 -164 -5z"/>
<path d="M5255 4156 c-49 -18 -112 -44 -140 -58 -111 -58 -270 -185 -337 -271
-39 -50 -34 -47 127 81 145 114 206 149 375 212 73 27 138 54 144 60 22 22
-82 8 -169 -24z"/>
<path d="M6830 4172 c0 -31 -40 -66 -92 -81 -49 -15 -108 -48 -108 -62 0 -16
67 -10 124 12 57 21 106 67 106 98 0 9 -7 26 -15 37 -14 18 -14 18 -15 -4z"/>
<path d="M4954 4094 c-18 -14 -18 -14 6 -3 31 14 36 19 24 19 -6 0 -19 -7 -30
-16z"/>
<path d="M2475 3679 c-20 -31 127 -137 326 -236 71 -35 131 -63 134 -63 19 0
-3 23 -47 49 -29 17 -78 48 -108 69 -88 63 -233 158 -268 176 -21 11 -33 12
-37 5z"/>
<path d="M2574 3400 c-11 -4 -28 -20 -38 -35 l-18 -28 48 8 c81 14 125 7 198
-30 38 -20 70 -35 71 -33 10 12 -22 53 -62 78 -73 46 -147 61 -199 40z"/>
<path d="M2523 3264 c-8 -21 11 -32 67 -39 25 -3 62 -10 83 -16 44 -12 56 -6
41 19 -28 46 -176 74 -191 36z"/>
<path d="M2660 742 c0 -5 7 -17 15 -28 14 -19 14 -19 15 2 0 12 -7 24 -15 28
-8 3 -15 2 -15 -2z"/>
<path d="M3020 746 c0 -2 7 -9 15 -16 12 -10 15 -10 15 4 0 9 -7 16 -15 16 -8
0 -15 -2 -15 -4z"/>
<path d="M2722 680 c0 -19 2 -27 5 -17 2 9 2 25 0 35 -3 9 -5 1 -5 -18z"/>
<path d="M2866 514 c-4 -10 -1 -14 6 -12 15 5 23 28 10 28 -5 0 -13 -7 -16
-16z"/>
<path d="M2870 468 c0 -23 11 -48 21 -48 14 0 11 24 -6 46 -12 16 -14 17 -15
2z"/>
<path d="M2930 439 c0 -5 5 -7 10 -4 6 3 10 8 10 11 0 2 -4 4 -10 4 -5 0 -10
-5 -10 -11z"/>
<path d="M2003 173 c-18 -6 -16 -23 1 -23 17 0 30 16 19 23 -5 2 -14 2 -20 0z"/>
</g>
</svg>
